# xmcd CD database file
#
# Track frame offsets:
#	182
#	15065
#	33135
#	44370
#	58037
#	79985
#	98462
#	115590
#	141100
#	154757
#	165050
#	180202
#	195207
#
# Disc length: 2987 seconds
#
# Revision: 13
# Processed by: cddbd v1.5.2PL0 Copyright (c) Steve Scherf et al.
# Submitted via: CDex 1.70beta2
#
DISCID=7f0ba90d
DTITLE=The Rolling Stones - Singles Collection The London Years [CD3]
DYEAR=1986
DGENRE=Rock
TTITLE0=Street Fighting Man
TTITLE1=No Expectations
TTITLE2=Surprise, Surprise
TTITLE3=Honky Tonk Women
TTITLE4=You Can't Always Get What You Want
TTITLE5=Memo From Turner (Solo Mick Jagger)
TTITLE6=Brown Sugar
TTITLE7=Wild Horses
TTITLE8=I Don't Know Why Aka Don't Know Why I Love You
TTITLE9=Try A Little Harder
TTITLE10=Out Of Time
TTITLE11=Jiving Sister Fanny
TTITLE12=Sympathy For the Devil
EXTD=YEAR: 1986
EXTT0=
EXTT1=
EXTT2=
EXTT3=
EXTT4=
EXTT5=
EXTT6=
EXTT7=
EXTT8=
EXTT9=
EXTT10=
EXTT11=
EXTT12=
PLAYORDER=
